<svg width="1103" height="774" viewBox="0 0 1103 774" fill="none" xmlns="http://www.w3.org/2000/svg">
<path d="M105.245 250.905V564.698C105.245 625.972 167.288 651.128 242.66 620.813L350.662 577.598C374.101 568.245 413.165 567.278 437.523 575.985L678.805 660.803C703.163 669.188 742.227 668.543 765.666 659.19L964.666 579.21C989.943 568.89 1011.08 543.735 1011.08 523.095V209.302C1011.08 148.027 949.04 122.872 873.668 153.187L765.666 196.403C742.227 205.755 703.163 206.723 678.805 198.015L437.523 113.52C413.165 105.135 374.101 105.78 350.662 115.132L151.662 195.113C125.926 205.433 105.245 230.588 105.245 250.905ZM393.403 129V548.25V129ZM722.925 213.495V645V213.495Z" fill="url(#paint0_linear_119_2)"/>
<path d="M393.403 129V548.25M722.925 213.495V645M105.245 250.905V564.698C105.245 625.973 167.288 651.128 242.66 620.813L350.662 577.598C374.101 568.245 413.165 567.278 437.523 575.985L678.805 660.803C703.163 669.188 742.227 668.543 765.666 659.19L964.666 579.21C989.943 568.89 1011.08 543.735 1011.08 523.095V209.302C1011.08 148.027 949.04 122.872 873.668 153.187L765.666 196.403C742.227 205.755 703.163 206.723 678.805 198.015L437.523 113.52C413.165 105.135 374.101 105.78 350.662 115.132L151.662 195.113C125.926 205.433 105.245 230.588 105.245 250.905Z" stroke="black" stroke-width="1.5" stroke-linecap="round" stroke-linejoin="round"/>
<path d="M313.516 279.051C313.516 339.047 236.232 390.472 236.232 390.472C236.232 390.472 158.948 339.047 158.948 279.051C158.948 258.593 167.09 238.972 181.584 224.506C196.077 210.04 215.735 201.913 236.232 201.913C256.729 201.913 276.387 210.04 290.88 224.506C305.374 238.972 313.516 258.593 313.516 279.051Z" fill="#FF0606" fill-opacity="0.56"/>
<path d="M236.232 304.763C250.46 304.763 261.993 293.251 261.993 279.051C261.993 264.85 250.46 253.338 236.232 253.338C222.004 253.338 210.471 264.85 210.471 279.051C210.471 293.251 222.004 304.763 236.232 304.763Z" fill="black" fill-opacity="0.84"/>
<path fill-rule="evenodd" clip-rule="evenodd" d="M913.625 491.336C919.427 493.688 918.984 502.03 912.966 503.757L882.595 512.471L868.725 540.81C865.976 546.426 857.667 545.412 856.354 539.301L842.214 473.485C841.105 468.32 846.238 464.021 851.142 466.009L913.625 491.336Z" fill="black" stroke="black" stroke-width="1.5"/>
<path fill-rule="evenodd" clip-rule="evenodd" d="M215.559 605.276C217.713 611.158 211.237 616.43 205.917 613.126L179.074 596.453L148.773 605.192C142.768 606.924 137.94 600.082 141.585 595.005L180.837 540.332C183.917 536.041 190.548 536.962 192.368 541.933L215.559 605.276Z" fill="black" stroke="black" stroke-width="1.5"/>
<path d="M187.451 537.061L236.78 385.026" stroke="black" stroke-dasharray="5 5"/>
<path d="M846.488 467.954C846.488 467.954 284.207 511.327 272.297 514.355C215.075 528.901 245.016 386.183 245.016 386.183" stroke="black" stroke-dasharray="5 5"/>
<g clip-path="url(#clip0_119_2)">
<path d="M906.243 333.249C902.567 335.284 898.635 336.984 894.473 338.296C860.912 348.875 825.127 330.251 814.546 296.698C803.964 263.145 822.592 227.369 856.153 216.79C889.714 206.211 925.498 224.835 936.08 258.387C936.567 259.931 936.991 261.478 937.356 263.028" stroke="black" stroke-width="1.5" stroke-linecap="round" stroke-linejoin="round"/>
<path d="M863.817 241.091L886.809 313.994" stroke="black" stroke-width="1.5" stroke-linecap="round" stroke-linejoin="round"/>
<path d="M851.335 265.064L862.831 301.515" stroke="black" stroke-width="1.5" stroke-linecap="round" stroke-linejoin="round"/>
<path d="M909.857 259.974L913.689 272.125" stroke="black" stroke-width="1.5" stroke-linecap="round" stroke-linejoin="round"/>
<path d="M836.937 282.961L840.769 295.111" stroke="black" stroke-width="1.5" stroke-linecap="round" stroke-linejoin="round"/>
<path d="M883.963 241.42L903.123 302.173" stroke="black" stroke-width="1.5" stroke-linecap="round" stroke-linejoin="round"/>
<path d="M943.47 299.473L944.888 299.026C946.902 298.391 949.048 299.509 949.683 301.522L954.09 315.495C954.725 317.508 953.607 319.655 951.594 320.29L928.502 327.569C926.488 328.203 924.342 327.086 923.707 325.073L919.3 311.1C918.665 309.086 919.782 306.94 921.796 306.305L923.214 305.858M943.47 299.473L940.117 288.841C939 285.298 934.738 278.848 926.636 281.402C918.534 283.956 918.743 291.683 919.861 295.227L923.214 305.858M943.47 299.473L923.214 305.858" stroke="black" stroke-width="1.5" stroke-linecap="round" stroke-linejoin="round"/>
</g>
<defs>
<linearGradient id="paint0_linear_119_2" x1="558.164" y1="107.648" x2="558.164" y2="666.675" gradientUnits="userSpaceOnUse">
<stop stop-color="#0500FF" stop-opacity="0.66"/>
<stop offset="0.199068" stop-color="#0500FF" stop-opacity="0.66"/>
<stop offset="0.344904" stop-color="#1813FC" stop-opacity="0.601342"/>
<stop offset="0.345004" stop-color="#1813FC" stop-opacity="0.601342"/>
<stop offset="0.553242" stop-color="#3A36F6" stop-opacity="0.496235"/>
<stop offset="0.761579" stop-color="#6663EE" stop-opacity="0.357389"/>
<stop offset="0.9999" stop-color="#A2A1E3" stop-opacity="0.170013"/>
<stop offset="1" stop-color="#D9D9D9" stop-opacity="0"/>
</linearGradient>
<clipPath id="clip0_119_2">
<rect width="152.915" height="152.886" fill="white" transform="matrix(0.953737 -0.300642 0.30077 0.953697 779.401 227.626)"/>
</clipPath>
</defs>
</svg>
